<svg id="Layer_1" data-name="Layer 1" xmlns="http://www.w3.org/2000/svg" xmlns:xlink="http://www.w3.org/1999/xlink" width="54" height="54" viewBox="0 0 54 54"><defs><style>.cls-1{fill:url(#linear-gradient);}.cls-2{fill:url(#linear-gradient-2);}.cls-3{fill:url(#linear-gradient-3);}.cls-4,.cls-5{fill:none;stroke-miterlimit:10;}.cls-4{stroke:#8c6239;}.cls-5{stroke:#754c24;}</style><linearGradient id="linear-gradient" x1="7.18" y1="40.39" x2="47.93" y2="11.4" gradientUnits="userSpaceOnUse"><stop offset="0" stop-color="#2e3192"/><stop offset="1" stop-color="#29abe2"/></linearGradient><linearGradient id="linear-gradient-2" x1="18.81" y1="23.53" x2="41.93" y2="41.09" gradientTransform="translate(25.65 -11.04) rotate(38.83)" gradientUnits="userSpaceOnUse"><stop offset="0" stop-color="#cb8f57"/><stop offset="1" stop-color="#754c24"/></linearGradient><linearGradient id="linear-gradient-3" x1="10.65" y1="14.46" x2="21.17" y2="14.46" gradientUnits="userSpaceOnUse"><stop offset="0" stop-color="#cb8f57"/><stop offset="0.26" stop-color="#c88d55"/><stop offset="0.47" stop-color="#be854f"/><stop offset="0.65" stop-color="#ae7846"/><stop offset="0.82" stop-color="#966638"/><stop offset="0.98" stop-color="#794f26"/><stop offset="1" stop-color="#754c24"/></linearGradient></defs><title>Artboard 1</title><rect class="cls-1" x="1" y="2" width="50" height="50" rx="12"/><rect class="cls-2" x="23.89" y="13.43" width="9.18" height="34.89" transform="translate(-13.06 24.68) rotate(-38.83)"/><polygon class="cls-3" points="21.17 14.48 17.59 17.36 14.01 20.23 12.33 14.46 10.65 8.69 15.91 11.59 21.17 14.48"/><polygon points="14.3 10.73 12.95 11.79 11.6 12.86 10.8 10.45 9.99 8.04 12.15 9.39 14.3 10.73"/><polyline class="cls-4" points="13.97 20.16 18.12 18 21.12 14.41"/><line class="cls-5" x1="39.42" y1="44.47" x2="18.29" y2="18.06"/></svg>