<svg id="Layer_1" data-name="Layer 1" xmlns="http://www.w3.org/2000/svg" xmlns:xlink="http://www.w3.org/1999/xlink" width="28" height="24" viewBox="0 0 28 24"><defs><style>.cls-1,.cls-4{fill:none;}.cls-1{stroke:#000;stroke-miterlimit:10;stroke-width:0.5px;}.cls-2{fill:#e0b199;}.cls-3{fill:url(#linear-gradient);}</style><linearGradient id="linear-gradient" x1="11.97" y1="9.81" x2="15.24" y2="9.9" gradientUnits="userSpaceOnUse"><stop offset="0" stop-color="#dd6c22"/><stop offset="0.17" stop-color="#dc7422"/><stop offset="0.43" stop-color="#d98b24"/><stop offset="0.76" stop-color="#d5b026"/><stop offset="1" stop-color="#d1d128"/></linearGradient></defs><title>cykel</title><circle class="cls-1" cx="6.83" cy="17.98" r="4.33"/><rect x="13.06" y="13.38" width="0.54" height="7.58" rx="0.18"/><rect x="17.94" y="10.13" width="4.88" height="0.54" rx="0.18"/><rect x="10.9" y="13.38" width="4.88" height="0.54" rx="0.18"/><rect x="12.52" y="20.42" width="2.17" height="0.54" rx="0.18"/><circle class="cls-2" cx="13.6" cy="4.17" r="2.17"/><ellipse class="cls-2" cx="17.13" cy="19.06" rx="0.31" ry="1.35" transform="translate(-3.65 34.06) rotate(-83.89)"/><rect class="cls-2" x="14.37" y="7.64" width="7.98" height="0.54" rx="0.18" transform="translate(5.17 -7.11) rotate(25.41)"/><rect class="cls-3" x="11.98" y="6.33" width="3.25" height="7.04" rx="1.08"/><rect class="cls-2" x="11.18" y="8.44" width="6.77" height="0.54" rx="0.18" transform="translate(5.15 -5.41) rotate(25.41)"/><rect class="cls-2" x="12.05" y="13.61" width="5.07" height="0.54" rx="0.18" transform="translate(7.37 -4.91) rotate(25.41)"/><rect class="cls-2" x="15.18" y="12.99" width="2.91" height="0.54" rx="0.18" transform="translate(7.3 -5.86) rotate(25.41)"/><rect class="cls-2" x="14.3" y="16.04" width="5.67" height="0.54" rx="0.18" transform="translate(37.61 4.44) rotate(106.32)"/><rect x="8.1" y="17.71" width="12.5" height="0.54" rx="0.18"/><rect x="10.23" y="15.48" width="12.83" height="0.54" rx="0.18" transform="translate(-5.76 20.55) rotate(-55.5)"/><rect class="cls-2" x="12.68" y="17.12" width="5.67" height="0.54" rx="0.18" transform="matrix(-0.5, 0.87, -0.87, -0.5, 38.33, 12.65)"/><ellipse class="cls-2" cx="14.42" cy="20.15" rx="0.31" ry="1.35" transform="translate(-10.35 20.62) rotate(-55.5)"/><circle class="cls-1" cx="22" cy="17.98" r="4.33"/><path d="M14.69,3.76h.81a.82.82,0,0,1-1.62,0h.81Z"/><path d="M13.06,3.76h.82a.83.83,0,0,1-1.63,0v0Z"/><line class="cls-4" x1="11.44" y1="3.08" x2="12.52" y2="4.17"/></svg>
