<svg id="Layer_1" data-name="Layer 1" xmlns="http://www.w3.org/2000/svg" xmlns:xlink="http://www.w3.org/1999/xlink" width="1600" height="900" viewBox="0 0 1600 900"><defs><style>.cls-1{fill:#86e1ea;}.cls-2{fill:url(#linear-gradient);}.cls-3{fill:url(#linear-gradient-2);}.cls-4{fill:url(#linear-gradient-3);}.cls-5{fill:#109e64;}.cls-6{fill:#087c4f;}.cls-7{fill:#32d660;}.cls-8{fill:url(#linear-gradient-4);}.cls-9{fill:url(#linear-gradient-5);}.cls-10{fill:#513620;}.cls-11{fill:url(#linear-gradient-6);}.cls-12,.cls-47{fill:none;}.cls-13{fill:url(#New_Gradient_Swatch_1);}.cls-14{fill:url(#New_Gradient_Swatch_1-2);}.cls-15{fill:url(#New_Gradient_Swatch_1-3);}.cls-16{fill:#8c6239;}.cls-17{fill:#77675a;}.cls-18{fill:#fff;}.cls-19{fill:url(#linear-gradient-7);}.cls-20{fill:url(#linear-gradient-8);}.cls-21{fill:url(#linear-gradient-9);}.cls-22{fill:url(#linear-gradient-10);}.cls-23{fill:url(#linear-gradient-11);}.cls-24{fill:url(#linear-gradient-12);}.cls-25{fill:url(#linear-gradient-13);}.cls-26{fill:#f2f2f2;}.cls-27{opacity:0.5;}.cls-28{fill:#76878c;}.cls-29{fill:#eadca2;}.cls-30{fill:#e2f5fd;}.cls-31{fill:url(#linear-gradient-14);}.cls-32{fill:url(#linear-gradient-15);}.cls-33{fill:url(#linear-gradient-16);}.cls-34{fill:url(#linear-gradient-17);}.cls-35{fill:url(#linear-gradient-18);}.cls-36{fill:url(#linear-gradient-19);}.cls-37{fill:url(#linear-gradient-20);}.cls-38{fill:#14c1c1;}.cls-39{fill:#074747;}.cls-40{fill:url(#linear-gradient-21);}.cls-41{fill:url(#linear-gradient-22);}.cls-42{fill:url(#linear-gradient-23);}.cls-43{fill:url(#linear-gradient-24);}.cls-44{fill:url(#linear-gradient-25);}.cls-45{fill:url(#linear-gradient-26);}.cls-46{fill:#078389;}.cls-47{stroke:#078389;stroke-linecap:round;stroke-linejoin:round;stroke-width:17px;}.cls-48{fill:url(#linear-gradient-27);}.cls-49{fill:url(#linear-gradient-28);}.cls-50{fill:url(#linear-gradient-29);}.cls-51{fill:url(#linear-gradient-30);}.cls-52{fill:url(#linear-gradient-31);}.cls-53{fill:url(#linear-gradient-32);}.cls-54{fill:url(#New_Gradient_Swatch_2);}.cls-55{fill:url(#New_Gradient_Swatch_2-2);}.cls-56{fill:url(#New_Gradient_Swatch_2-3);}.cls-57{fill:url(#New_Gradient_Swatch_2-4);}.cls-58{fill:url(#New_Gradient_Swatch_2-5);}.cls-59{fill:url(#New_Gradient_Swatch_2-6);}.cls-60{fill:url(#New_Gradient_Swatch_2-7);}.cls-61{fill:url(#New_Gradient_Swatch_2-8);}.cls-62{fill:url(#New_Gradient_Swatch_2-9);}.cls-63{fill:url(#New_Gradient_Swatch_2-10);}.cls-64{fill:url(#New_Gradient_Swatch_2-11);}.cls-65{fill:url(#New_Gradient_Swatch_2-12);}.cls-66{fill:url(#New_Gradient_Swatch_2-13);}.cls-67{fill:url(#New_Gradient_Swatch_2-14);}.cls-68{fill:url(#New_Gradient_Swatch_2-15);}.cls-69{fill:url(#New_Gradient_Swatch_2-16);}.cls-70{fill:url(#New_Gradient_Swatch_2-17);}.cls-71{fill:url(#New_Gradient_Swatch_2-18);}.cls-72{fill:url(#New_Gradient_Swatch_2-19);}.cls-73{fill:url(#New_Gradient_Swatch_2-20);}.cls-74{fill:url(#New_Gradient_Swatch_2-21);}.cls-75{fill:url(#New_Gradient_Swatch_2-22);}.cls-76{fill:url(#New_Gradient_Swatch_2-23);}.cls-77{fill:url(#New_Gradient_Swatch_2-24);}.cls-78{fill:url(#New_Gradient_Swatch_2-25);}.cls-79{fill:url(#New_Gradient_Swatch_2-26);}.cls-80{fill:url(#New_Gradient_Swatch_2-27);}.cls-81{fill:url(#New_Gradient_Swatch_2-28);}.cls-82{fill:url(#New_Gradient_Swatch_2-29);}.cls-83{fill:url(#New_Gradient_Swatch_1-4);}.cls-84{fill:#e93b00;}</style><linearGradient id="linear-gradient" y1="450" x2="801" y2="450" gradientUnits="userSpaceOnUse"><stop offset="0" stop-color="#0f1656"/><stop offset="0.2" stop-color="#111958"/><stop offset="0.34" stop-color="#16225f"/><stop offset="0.47" stop-color="#20326b"/><stop offset="0.59" stop-color="#2d497b"/><stop offset="0.7" stop-color="#3e6691"/><stop offset="0.81" stop-color="#538aab"/><stop offset="0.91" stop-color="#6cb4c9"/><stop offset="1" stop-color="#86e1ea"/></linearGradient><linearGradient id="linear-gradient-2" x1="828.01" y1="424.57" x2="828.01" y2="256.15" gradientUnits="userSpaceOnUse"><stop offset="0" stop-color="#8c6239"/><stop offset="0.29" stop-color="#8d643b"/><stop offset="0.44" stop-color="#926a43"/><stop offset="0.56" stop-color="#997450"/><stop offset="0.66" stop-color="#a38363"/><stop offset="0.75" stop-color="#b1967c"/><stop offset="0.84" stop-color="#c2ae9a"/><stop offset="0.91" stop-color="#d6cabe"/><stop offset="0.98" stop-color="#ece9e7"/><stop offset="1" stop-color="#f2f2f2"/></linearGradient><linearGradient id="linear-gradient-3" x1="1045.94" y1="432.84" x2="1045.94" y2="124.33" xlink:href="#linear-gradient-2"/><linearGradient id="linear-gradient-4" x1="841.44" y1="407.04" x2="841.44" y2="462.87" gradientUnits="userSpaceOnUse"><stop offset="0" stop-color="#8c6239"/><stop offset="0.41" stop-color="#8a6038"/><stop offset="0.62" stop-color="#825b35"/><stop offset="0.78" stop-color="#75512f"/><stop offset="0.91" stop-color="#624327"/><stop offset="1" stop-color="#513620"/></linearGradient><linearGradient id="linear-gradient-5" x1="538.42" y1="425.35" x2="538.37" y2="632.09" gradientTransform="matrix(-1, 0, 0, -1.06, 1074.35, 1084.31)" gradientUnits="userSpaceOnUse"><stop offset="0" stop-color="#8c6239"/><stop offset="0.29" stop-color="#805934"/><stop offset="0.81" stop-color="#5f4026"/><stop offset="1" stop-color="#513620"/></linearGradient><linearGradient id="linear-gradient-6" x1="452.48" y1="416.51" x2="452.48" y2="563.86" gradientTransform="translate(902.72 982.43) rotate(-179.74)" xlink:href="#linear-gradient-5"/><linearGradient id="New_Gradient_Swatch_1" x1="438.5" y1="358.33" x2="625.01" y2="358.33" gradientUnits="userSpaceOnUse"><stop offset="0" stop-color="#c1272d"/><stop offset="0.05" stop-color="#c32c2c"/><stop offset="0.45" stop-color="#d14f27"/><stop offset="0.79" stop-color="#da6523"/><stop offset="1" stop-color="#dd6d22"/></linearGradient><linearGradient id="New_Gradient_Swatch_1-2" x1="512.83" y1="248.44" x2="549.65" y2="248.44" xlink:href="#New_Gradient_Swatch_1"/><linearGradient id="New_Gradient_Swatch_1-3" x1="512.13" y1="204.11" x2="550.14" y2="204.11" xlink:href="#New_Gradient_Swatch_1"/><linearGradient id="linear-gradient-7" x1="939.57" y1="429.96" x2="939.57" y2="835" gradientUnits="userSpaceOnUse"><stop offset="0" stop-color="#8c6239"/><stop offset="0.41" stop-color="#724f2e"/><stop offset="1" stop-color="#513620"/></linearGradient><linearGradient id="linear-gradient-8" x1="1087.4" y1="412.84" x2="1087.4" y2="718.94" gradientTransform="matrix(1, 0, 0, 1, 0, 0)" xlink:href="#linear-gradient-5"/><linearGradient id="linear-gradient-9" x1="706.83" y1="414.52" x2="706.83" y2="620.54" gradientUnits="userSpaceOnUse"><stop offset="0" stop-color="#8c6239"/><stop offset="0.22" stop-color="#805934"/><stop offset="0.43" stop-color="#704d2d"/><stop offset="1" stop-color="#513620"/></linearGradient><linearGradient id="linear-gradient-10" x1="1014.99" y1="431.97" x2="1014.99" y2="733.76" gradientTransform="translate(2027.33 1170.34) rotate(-179.74)" xlink:href="#linear-gradient-5"/><linearGradient id="linear-gradient-11" x1="928.97" y1="416.51" x2="928.97" y2="610.19" gradientTransform="translate(1855.6 1030.92) rotate(-179.74)" xlink:href="#linear-gradient-5"/><linearGradient id="linear-gradient-12" x1="1127.97" y1="420.51" x2="1127.97" y2="614.19" gradientTransform="matrix(-1, -0.01, 0, -1.17, 2253.65, 1147.96)" xlink:href="#linear-gradient-5"/><linearGradient id="linear-gradient-13" x1="1184.66" y1="430.78" x2="1184.66" y2="637.52" gradientTransform="matrix(-1, 0, 0, -0.95, 2366.86, 1044.11)" xlink:href="#linear-gradient-5"/><linearGradient id="linear-gradient-14" x1="919.85" y1="747" x2="919.85" y2="817.5" gradientUnits="userSpaceOnUse"><stop offset="0" stop-color="#14c1c1"/><stop offset="0.15" stop-color="#11b2b4"/><stop offset="0.44" stop-color="#098c91"/><stop offset="0.5" stop-color="#078389"/><stop offset="0.63" stop-color="#07787d"/><stop offset="0.87" stop-color="#075a5c"/><stop offset="1" stop-color="#074747"/></linearGradient><linearGradient id="linear-gradient-15" x1="955.35" y1="770.07" x2="955.35" y2="797.5" xlink:href="#linear-gradient-14"/><linearGradient id="linear-gradient-16" x1="959.5" y1="792" x2="959.5" y2="820.5" gradientUnits="userSpaceOnUse"><stop offset="0" stop-color="#14c1c1"/><stop offset="0.11" stop-color="#11b2b4"/><stop offset="0.32" stop-color="#098c91"/><stop offset="0.36" stop-color="#078389"/><stop offset="0.53" stop-color="#07787d"/><stop offset="0.83" stop-color="#075a5c"/><stop offset="1" stop-color="#074747"/></linearGradient><linearGradient id="linear-gradient-17" x1="978.35" y1="775.07" x2="978.35" y2="802.5" xlink:href="#linear-gradient-14"/><linearGradient id="linear-gradient-18" x1="985.35" y1="760.07" x2="985.35" y2="787.5" gradientUnits="userSpaceOnUse"><stop offset="0" stop-color="#14c1c1"/><stop offset="0.22" stop-color="#11b2b4"/><stop offset="0.65" stop-color="#098c91"/><stop offset="0.73" stop-color="#078389"/><stop offset="0.8" stop-color="#07787d"/><stop offset="0.93" stop-color="#075a5c"/><stop offset="1" stop-color="#074747"/></linearGradient><linearGradient id="linear-gradient-19" x1="967.35" y1="756.07" x2="967.35" y2="783.5" gradientUnits="userSpaceOnUse"><stop offset="0" stop-color="#14c1c1"/><stop offset="0.16" stop-color="#11b2b4"/><stop offset="0.46" stop-color="#098c91"/><stop offset="0.52" stop-color="#078389"/><stop offset="0.65" stop-color="#07787d"/><stop offset="0.87" stop-color="#075a5c"/><stop offset="1" stop-color="#074747"/></linearGradient><linearGradient id="linear-gradient-20" x1="946.35" y1="751.07" x2="946.35" y2="778.5" xlink:href="#linear-gradient-14"/><linearGradient id="linear-gradient-21" x1="931.62" y1="773.34" x2="931.62" y2="842.3" xlink:href="#linear-gradient-14"/><linearGradient id="linear-gradient-22" x1="903.96" y1="777.57" x2="903.96" y2="796.32" xlink:href="#linear-gradient-14"/><linearGradient id="linear-gradient-23" x1="914.69" y1="786.64" x2="914.69" y2="878" xlink:href="#linear-gradient-14"/><linearGradient id="linear-gradient-24" x1="964.69" y1="777.64" x2="964.69" y2="890" xlink:href="#linear-gradient-14"/><linearGradient id="linear-gradient-25" x1="897.35" y1="784.23" x2="897.35" y2="853.19" xlink:href="#linear-gradient-14"/><linearGradient id="linear-gradient-26" x1="886.35" y1="770.07" x2="886.35" y2="797.5" xlink:href="#linear-gradient-14"/><linearGradient id="linear-gradient-27" x1="832.18" y1="619.71" x2="832.18" y2="671.85" xlink:href="#linear-gradient-14"/><linearGradient id="linear-gradient-28" x1="855.18" y1="626" x2="855.18" y2="668" xlink:href="#linear-gradient-14"/><linearGradient id="linear-gradient-29" x1="813.07" y1="625" x2="813.07" y2="658.85" xlink:href="#linear-gradient-14"/><linearGradient id="linear-gradient-30" x1="842.32" y1="633.79" x2="842.32" y2="693.23" xlink:href="#linear-gradient-14"/><linearGradient id="linear-gradient-31" x1="827.73" y1="645.26" x2="827.73" y2="724" xlink:href="#linear-gradient-14"/><linearGradient id="linear-gradient-32" x1="812.79" y1="643.17" x2="812.79" y2="702.62" xlink:href="#linear-gradient-14"/><radialGradient id="New_Gradient_Swatch_2" cx="298.58" cy="263.37" r="13.76" gradientUnits="userSpaceOnUse"><stop offset="0" stop-color="#eadca2"/><stop offset="0.2" stop-color="#ebdda5"/><stop offset="0.36" stop-color="#ede1ae"/><stop offset="0.49" stop-color="#f0e7be"/><stop offset="0.61" stop-color="#f6efd5"/><stop offset="0.73" stop-color="#fcfaf2"/><stop offset="0.77" stop-color="#fff"/></radialGradient><radialGradient id="New_Gradient_Swatch_2-2" cx="545.58" cy="712.37" r="13.76" xlink:href="#New_Gradient_Swatch_2"/><radialGradient id="New_Gradient_Swatch_2-3" cx="293.83" cy="421.49" r="18.32" xlink:href="#New_Gradient_Swatch_2"/><radialGradient id="New_Gradient_Swatch_2-4" cx="271.33" cy="707.23" r="9.83" xlink:href="#New_Gradient_Swatch_2"/><radialGradient id="New_Gradient_Swatch_2-5" cx="281.33" cy="823.23" r="9.83" xlink:href="#New_Gradient_Swatch_2"/><radialGradient id="New_Gradient_Swatch_2-6" cx="435.94" cy="647.49" r="11.55" xlink:href="#New_Gradient_Swatch_2"/><radialGradient id="New_Gradient_Swatch_2-7" cx="452.94" cy="735.49" r="11.55" xlink:href="#New_Gradient_Swatch_2"/><radialGradient id="New_Gradient_Swatch_2-8" cx="440.94" cy="853.49" r="11.55" gradientTransform="translate(-513.69 748.56) rotate(-56.4)" xlink:href="#New_Gradient_Swatch_2"/><radialGradient id="New_Gradient_Swatch_2-9" cx="606.67" cy="1143.22" r="7.74" gradientTransform="translate(-513.69 748.56) rotate(-56.4)" xlink:href="#New_Gradient_Swatch_2"/><radialGradient id="New_Gradient_Swatch_2-10" cx="627.94" cy="813.49" r="11.55" xlink:href="#New_Gradient_Swatch_2"/><radialGradient id="New_Gradient_Swatch_2-11" cx="720.94" cy="718.49" r="11.55" xlink:href="#New_Gradient_Swatch_2"/><radialGradient id="New_Gradient_Swatch_2-12" cx="82.86" cy="464.73" r="13.11" xlink:href="#New_Gradient_Swatch_2"/><radialGradient id="New_Gradient_Swatch_2-13" cx="641.86" cy="651.73" r="13.11" xlink:href="#New_Gradient_Swatch_2"/><radialGradient id="New_Gradient_Swatch_2-14" cx="677.06" cy="51.19" r="13.82" xlink:href="#New_Gradient_Swatch_2"/><radialGradient id="New_Gradient_Swatch_2-15" cx="683.06" cy="258.19" r="13.82" xlink:href="#New_Gradient_Swatch_2"/><radialGradient id="New_Gradient_Swatch_2-16" cx="158.06" cy="616.19" r="13.82" xlink:href="#New_Gradient_Swatch_2"/><radialGradient id="New_Gradient_Swatch_2-17" cx="105.06" cy="808.19" r="13.82" xlink:href="#New_Gradient_Swatch_2"/><radialGradient id="New_Gradient_Swatch_2-18" cx="744.06" cy="159.19" r="13.82" xlink:href="#New_Gradient_Swatch_2"/><radialGradient id="New_Gradient_Swatch_2-19" cx="226.72" cy="204.03" r="16.79" xlink:href="#New_Gradient_Swatch_2"/><radialGradient id="New_Gradient_Swatch_2-20" cx="337.81" cy="113.74" r="13.11" xlink:href="#New_Gradient_Swatch_2"/><radialGradient id="New_Gradient_Swatch_2-21" cx="401.75" cy="43.58" r="8.83" xlink:href="#New_Gradient_Swatch_2"/><radialGradient id="New_Gradient_Swatch_2-22" cx="473.75" cy="222.58" r="8.83" xlink:href="#New_Gradient_Swatch_2"/><radialGradient id="New_Gradient_Swatch_2-23" cx="531.75" cy="134.58" r="8.83" xlink:href="#New_Gradient_Swatch_2"/><radialGradient id="New_Gradient_Swatch_2-24" cx="486.75" cy="73.58" r="8.83" xlink:href="#New_Gradient_Swatch_2"/><radialGradient id="New_Gradient_Swatch_2-25" cx="106.83" cy="68.07" r="11.05" xlink:href="#New_Gradient_Swatch_2"/><radialGradient id="New_Gradient_Swatch_2-26" cx="49.78" cy="158.29" r="11.08" xlink:href="#New_Gradient_Swatch_2"/><radialGradient id="New_Gradient_Swatch_2-27" cx="74.84" cy="268.09" r="8.34" xlink:href="#New_Gradient_Swatch_2"/><radialGradient id="New_Gradient_Swatch_2-28" cx="129.79" cy="335.62" r="11.1" xlink:href="#New_Gradient_Swatch_2"/><radialGradient id="New_Gradient_Swatch_2-29" cx="60.79" cy="712.62" r="11.1" xlink:href="#New_Gradient_Swatch_2"/><linearGradient id="New_Gradient_Swatch_1-4" x1="392.32" y1="287.07" x2="671.39" y2="287.07" xlink:href="#New_Gradient_Swatch_1"/></defs><title>Peace</title><rect class="cls-1" x="778" width="822" height="900"/><rect class="cls-2" width="801" height="900"/><path class="cls-3" d="M696.24,400.67c-8.73,10.67,2.26,23.95,19.78,23.9l112-.34,112-.34c17.52-.06,28.43-13.4,19.64-24L903.51,332l-56.22-67.9c-8.8-10.62-30.7-10.55-39.43.12l-55.81,68.24Z"/><path class="cls-4" d="M849.75,389c-13,19.55,3.39,43.88,29.48,43.8l166.8-.5,166.8-.51c26.08-.07,42.31-24.51,29.21-44l-83.78-124.49-83.77-124.49c-13.11-19.47-45.72-19.37-58.7.18l-83,125Z"/><path class="cls-5" d="M1108.56,340.51l-77.22.18v-.18c0-38.45,34.85-70.09,77.22-70.09s77.22,31.64,77.22,70.09Z"/><path class="cls-6" d="M1031.34,341.7l-61.78.11v-.11c0-23.46,27.89-42.77,61.78-42.77s61.77,19.31,61.77,42.77Z"/><path class="cls-7" d="M1187,364.27l-71.28.13v-.13c0-28,32.18-51.08,71.28-51.08s71.28,23.06,71.28,51.08c0,23.32-22.28,43.82-53.83,49.53Z"/><path class="cls-5" d="M961.84,360.71l-61.18.13v-.13c0-29.33,27.62-53.46,61.18-53.46S1023,331.38,1023,360.71Z"/><rect class="cls-8" x="402.89" y="407.04" width="877.11" height="55.84" rx="21"/><rect class="cls-9" x="524.07" y="412.99" width="28.58" height="218.7" rx="12" transform="translate(1079.09 1042.24) rotate(179.74)"/><rect class="cls-10" x="466.83" y="409.43" width="28.58" height="90.27" rx="12" transform="translate(964.3 906.94) rotate(179.74)"/><rect class="cls-11" x="438.19" y="416.52" width="28.58" height="147.33" rx="12" transform="translate(907.18 978.32) rotate(179.74)"/><rect class="cls-12" x="377.17" y="427.77" width="237.95" height="183.06" transform="translate(-2.36 2.27) rotate(-0.26)"/><rect class="cls-12" x="393.8" y="426.59" width="237.95" height="183.06" transform="translate(-2.36 2.34) rotate(-0.26)"/><rect class="cls-13" x="438.5" y="309.62" width="186.51" height="97.42"/><rect class="cls-14" x="512.83" y="222.9" width="36.83" height="51.08"/><polygon class="cls-15" points="550.14 223.28 531.14 223.23 512.13 223.18 521.69 204.06 531.25 184.94 540.7 204.11 550.14 223.28"/><rect class="cls-10" x="514.56" y="352.39" width="38.02" height="67.72" rx="16"/><rect class="cls-16" x="507.43" y="407.04" width="52.27" height="13.07"/><rect class="cls-17" x="494.89" y="412.35" width="28.72" height="122.65" rx="12" transform="translate(1020.63 945.04) rotate(179.74)"/><rect class="cls-17" x="532.38" y="353.58" width="1.19" height="53.46"/><circle class="cls-18" cx="527.63" cy="382.09" r="2.38"/><circle class="cls-18" cx="538.32" cy="382.09" r="2.38"/><circle class="cls-18" cx="531.19" cy="239.53" r="13.07"/><rect x="530" y="239.53" width="10.69" height="1.19"/><rect x="525.25" y="234.78" width="10.69" height="1.19" transform="translate(295.22 765.97) rotate(-90)"/><path class="cls-19" d="M720.94,487.51c-14.45-25.67,3.81-57.63,32.88-57.55l185.86.57,185.86.56c29.07.09,47.14,32.17,32.53,57.74l-93.43,163.53L971.22,815.88a37.44,37.44,0,0,1-65.41-.2L813.38,651.59Z"/><path class="cls-20" d="M913.79,456.32c-11.48-19.4,3-43.55,26.1-43.48l147.59.44,147.6.45c23.08.07,37.44,24.31,25.83,43.64l-74.17,123.57L1112.57,704.5c-11.6,19.33-40.45,19.24-51.94-.16l-73.42-124Z"/><path class="cls-21" d="M598.11,443.79c-7.18-13.05,1.9-29.31,16.35-29.27l92.43.28,92.42.28c14.46.05,23.45,16.36,16.18,29.37L769,527.63l-46.46,83.18a18.42,18.42,0,0,1-32.53-.09l-46-83.47Z"/><path class="cls-10" d="M609.59,438.26c-1.74-3.68.47-8.26,4-8.25l22.49.07,22.49.07c3.52,0,5.7,4.6,3.93,8.27l-11.32,23.42-11.31,23.42c-1.77,3.67-6.17,3.65-7.92,0l-11.17-23.49Z"/><path class="cls-17" d="M651.22,434.92c-2.1-3.87.56-8.69,4.79-8.68l27.07.08,27.06.09c4.23,0,6.86,4.84,4.73,8.7l-13.6,24.66-13.61,24.66a5.36,5.36,0,0,1-9.52,0l-13.46-24.74Z"/><rect class="cls-17" x="580.92" y="412.48" width="28.81" height="187.51" rx="12" transform="translate(1192.92 1009.79) rotate(179.74)"/><rect class="cls-10" x="1028.64" y="423.67" width="28.53" height="187.71" rx="12" transform="translate(2088.16 1030.29) rotate(179.74)"/><rect class="cls-22" x="1000.7" y="431.98" width="28.58" height="301.77" rx="12" transform="translate(2032.62 1161.12) rotate(179.74)"/><rect class="cls-10" x="944.27" y="431.76" width="28.58" height="112.84" rx="12" transform="matrix(-1, 0, 0, -1, 1919.32, 971.99)"/><rect class="cls-23" x="914.68" y="416.52" width="28.58" height="193.66" rx="12" transform="translate(1860.26 1022.48) rotate(179.74)"/><rect class="cls-24" x="1113.75" y="420.52" width="28.58" height="227.48" rx="12" transform="translate(2258.5 1063.39) rotate(179.74)"/><rect class="cls-12" x="853.55" y="427.77" width="237.95" height="183.06" transform="translate(-2.36 4.44) rotate(-0.26)"/><rect class="cls-12" x="870.19" y="426.59" width="237.95" height="183.06" transform="translate(-2.35 4.51) rotate(-0.26)"/><rect class="cls-17" x="971.54" y="435.88" width="28.72" height="147.31" rx="12" transform="translate(1974.1 1014.6) rotate(179.74)"/><rect class="cls-17" x="1057.17" y="411.79" width="28.81" height="127.12" rx="12" transform="translate(2145.28 945.87) rotate(179.74)"/><rect class="cls-10" x="1198.36" y="422.48" width="28.53" height="117.51" rx="12" transform="translate(2427.43 956.95) rotate(179.74)"/><rect class="cls-25" x="1170.35" y="430.79" width="28.58" height="197.21" rx="12" transform="translate(2371.67 1053.41) rotate(179.74)"/><rect class="cls-10" x="1084.39" y="443.33" width="28.58" height="116.69" rx="12" transform="translate(2199.63 998.36) rotate(179.74)"/><rect class="cls-12" x="1023.44" y="426.59" width="237.95" height="183.06" transform="matrix(1, 0, 0, 1, -2.35, 5.21)"/><rect class="cls-17" x="1141.18" y="414.16" width="28.72" height="134.25" rx="12" transform="matrix(-1, 0, 0, -1, 2313.24, 957.35)"/><rect class="cls-17" x="1227.12" y="421.3" width="28.81" height="155.63" rx="12" transform="translate(2485.28 992.62) rotate(179.74)"/><path class="cls-7" d="M890,382.09l-71.28.13v-.13c0-28,32.17-51.08,71.28-51.08s71.27,23.06,71.27,51.08Z"/><path class="cls-6" d="M829.38,406.44l-71.28.11v-.11c0-23.13,32.17-42.17,71.28-42.17s71.28,19,71.28,42.17Z"/><path class="cls-6" d="M1072.92,375l-108.11.11V375c0-23.46,48.8-42.77,108.11-42.77S1181,351.5,1181,375Z"/><path class="cls-5" d="M998.67,407l-123,.13V407c0-29.33,55.5-53.46,123-53.46s122.95,24.13,122.95,53.46Z"/><path class="cls-6" d="M1125.78,408.23l-123,.13v-.13c0-29.33,55.51-53.46,123-53.46s123,24.13,123,53.46Z"/><rect class="cls-10" x="1173.01" y="313.22" width="6.51" height="74.81"/><polygon class="cls-7" points="1194.09 288.85 1176.15 288.83 1158.21 288.81 1167.2 270.51 1176.19 252.21 1185.14 270.53 1194.09 288.85"/><polygon class="cls-6" points="1194.09 302.23 1176.15 302.21 1158.21 302.19 1167.2 283.9 1176.19 265.6 1185.14 283.92 1194.09 302.23"/><polygon class="cls-5" points="1194.09 314.98 1176.15 314.96 1158.21 314.94 1167.2 296.64 1176.19 278.35 1185.14 296.66 1194.09 314.98"/><rect class="cls-10" x="1111.65" y="339.76" width="5.64" height="64.9"/><polygon class="cls-6" points="1129.94 318.62 1114.38 318.6 1098.81 318.58 1106.61 302.71 1114.41 286.83 1122.17 302.72 1129.94 318.62"/><polygon class="cls-7" points="1129.94 330.23 1114.38 330.21 1098.81 330.19 1106.61 314.32 1114.41 298.44 1122.17 314.33 1129.94 330.23"/><polygon class="cls-5" points="1129.94 341.28 1114.37 341.27 1098.81 341.25 1106.61 325.38 1114.41 309.5 1122.17 325.39 1129.94 341.28"/><rect class="cls-10" x="1029.12" y="273.84" width="4.35" height="50.04"/><polygon class="cls-5" points="1043.22 257.53 1031.22 257.52 1019.22 257.51 1025.23 245.27 1031.24 233.03 1037.23 245.28 1043.22 257.53"/><polygon class="cls-6" points="1043.21 266.49 1031.21 266.47 1019.22 266.46 1025.23 254.22 1031.24 241.98 1037.23 254.23 1043.21 266.49"/><polygon class="cls-7" points="1043.21 275.01 1031.21 275 1019.22 274.99 1025.23 262.75 1031.24 250.51 1037.23 262.76 1043.21 275.01"/><rect class="cls-10" x="947.14" y="324.92" width="4.35" height="50.04"/><polygon class="cls-5" points="961.25 308.62 949.25 308.61 937.25 308.59 943.26 296.35 949.27 284.11 955.26 296.37 961.25 308.62"/><polygon class="cls-6" points="961.24 317.57 949.24 317.56 937.25 317.55 943.26 305.31 949.27 293.07 955.26 305.32 961.24 317.57"/><polygon class="cls-7" points="961.24 326.1 949.24 326.08 937.24 326.07 943.26 313.83 949.27 301.59 955.25 313.84 961.24 326.1"/><rect class="cls-10" x="832.09" y="359.45" width="2.13" height="24.51"/><polygon class="cls-5" points="839 351.46 833.12 351.46 827.25 351.45 830.19 345.46 833.13 339.46 836.07 345.46 839 351.46"/><polygon class="cls-6" points="839 355.85 833.12 355.84 827.24 355.84 830.19 349.84 833.13 343.85 836.07 349.85 839 355.85"/><polygon class="cls-7" points="839 360.03 833.12 360.02 827.24 360.01 830.19 354.02 833.13 348.02 836.07 354.02 839 360.03"/><rect class="cls-10" x="914.09" y="332.45" width="2.13" height="24.51"/><polygon class="cls-5" points="921 324.46 915.12 324.46 909.25 324.45 912.19 318.46 915.13 312.46 918.07 318.46 921 324.46"/><polygon class="cls-6" points="921 328.85 915.12 328.84 909.24 328.84 912.19 322.84 915.13 316.85 918.07 322.85 921 328.85"/><polygon class="cls-7" points="921 333.03 915.12 333.02 909.24 333.01 912.19 327.02 915.13 321.02 918.07 327.02 921 333.03"/><rect class="cls-10" x="995.09" y="369.45" width="2.13" height="24.51"/><polygon class="cls-5" points="1002 361.46 996.12 361.46 990.25 361.45 993.19 355.46 996.13 349.46 999.07 355.46 1002 361.46"/><polygon class="cls-6" points="1002 365.85 996.12 365.84 990.24 365.84 993.19 359.84 996.13 353.85 999.07 359.85 1002 365.85"/><polygon class="cls-7" points="1002 370.03 996.12 370.02 990.24 370.01 993.19 364.02 996.13 358.02 999.07 364.02 1002 370.03"/><rect class="cls-10" x="1073.09" y="359.45" width="2.13" height="24.51"/><polygon class="cls-5" points="1080 351.46 1074.12 351.46 1068.24 351.45 1071.19 345.46 1074.13 339.46 1077.07 345.46 1080 351.46"/><polygon class="cls-6" points="1080 355.85 1074.12 355.84 1068.24 355.84 1071.19 349.84 1074.13 343.85 1077.07 349.85 1080 355.85"/><polygon class="cls-7" points="1080 360.03 1074.12 360.02 1068.24 360.01 1071.19 354.02 1074.13 348.02 1077.07 354.02 1080 360.03"/><rect class="cls-10" x="1127.09" y="260.45" width="2.13" height="24.51"/><polygon class="cls-5" points="1134 252.46 1128.12 252.46 1122.24 252.45 1125.19 246.46 1128.13 240.46 1131.07 246.46 1134 252.46"/><polygon class="cls-6" points="1134 256.85 1128.12 256.84 1122.24 256.84 1125.19 250.84 1128.13 244.85 1131.07 250.85 1134 256.85"/><polygon class="cls-7" points="1134 261.03 1128.12 261.02 1122.24 261.01 1125.19 255.02 1128.13 249.02 1131.07 255.02 1134 261.03"/><rect class="cls-10" x="1217.09" y="327.45" width="2.13" height="24.51"/><polygon class="cls-5" points="1224 319.46 1218.12 319.46 1212.24 319.45 1215.19 313.46 1218.13 307.46 1221.07 313.46 1224 319.46"/><polygon class="cls-6" points="1224 323.85 1218.12 323.84 1212.24 323.84 1215.19 317.84 1218.13 311.85 1221.07 317.85 1224 323.85"/><polygon class="cls-7" points="1224 328.03 1218.12 328.02 1212.24 328.01 1215.19 322.02 1218.13 316.02 1221.07 322.02 1224 328.03"/><rect class="cls-26" x="1180.42" y="96.03" width="123.26" height="49.63" rx="12"/><circle class="cls-26" cx="1194.83" cy="96.03" r="26.41"/><circle class="cls-26" cx="1228.44" cy="85.62" r="26.41"/><circle class="cls-26" cx="1311.69" cy="107.23" r="26.41"/><path class="cls-26" d="M1311.69,145.65l-26.42.18v-.18a26.42,26.42,0,0,1,52.83,0Z"/><path class="cls-26" d="M1172.41,145.25l-26.41.22v-.22c0-17.78,11.92-32.41,26.41-32.41s26.42,14.63,26.42,32.41Z"/><circle class="cls-26" cx="1279.67" cy="77.62" r="33.62"/><g class="cls-27"><rect class="cls-28" x="1279.57" y="122.84" width="77.04" height="31.68" rx="12"/><ellipse class="cls-28" cx="1288.57" cy="122.84" rx="16.51" ry="16.86"/><ellipse class="cls-28" cx="1309.58" cy="116.2" rx="16.51" ry="16.86"/><ellipse class="cls-28" cx="1361.61" cy="129.99" rx="16.51" ry="16.86"/><path class="cls-28" d="M1361.61,154.52l-16.51.11v-.11a16.51,16.51,0,1,1,33,0Z"/><path class="cls-28" d="M1274.57,154.27l-16.51.13v-.13c0-11.36,7.45-20.7,16.51-20.7s16.5,9.34,16.5,20.7Z"/><ellipse class="cls-28" cx="1341.6" cy="111.09" rx="21.01" ry="21.46"/></g><rect class="cls-26" x="1428.35" y="339.28" width="76.47" height="30.79" rx="12"/><circle class="cls-26" cx="1437.29" cy="339.28" r="16.39"/><circle class="cls-26" cx="1458.14" cy="332.82" r="16.39"/><circle class="cls-26" cx="1509.79" cy="346.23" r="16.39"/><path class="cls-26" d="M1509.79,370.06l-16.39.11v-.11a16.39,16.39,0,0,1,32.77,0Z"/><path class="cls-26" d="M1423.39,369.81,1407,370v-.14c0-11,7.4-20.11,16.39-20.11s16.38,9.08,16.38,20.11Z"/><circle class="cls-26" cx="1489.92" cy="327.86" r="20.86"/><g class="cls-27"><rect class="cls-28" x="1489.86" y="355.91" width="47.79" height="19.65" rx="9.83"/><ellipse class="cls-28" cx="1495.45" cy="355.91" rx="10.24" ry="10.46"/><ellipse class="cls-28" cx="1508.48" cy="351.79" rx="10.24" ry="10.46"/><ellipse class="cls-28" cx="1540.76" cy="360.35" rx="10.24" ry="10.46"/><path class="cls-28" d="M1540.76,375.56l-10.24.07v-.07a10.24,10.24,0,1,1,20.48,0Z"/><path class="cls-28" d="M1486.76,375.4l-10.24.09v-.09c0-7,4.62-12.83,10.24-12.83S1497,368.36,1497,375.4Z"/><ellipse class="cls-28" cx="1528.34" cy="348.62" rx="13.03" ry="13.31"/></g><rect class="cls-26" x="1250.42" y="619.56" width="69.57" height="28.01" rx="12"/><circle class="cls-26" cx="1258.56" cy="619.56" r="14.91"/><circle class="cls-26" cx="1277.53" cy="613.69" r="14.91"/><circle class="cls-26" cx="1324.51" cy="625.88" r="14.91"/><path class="cls-26" d="M1324.51,647.56l-14.91.1v-.1a14.91,14.91,0,0,1,29.81,0Z"/><path class="cls-26" d="M1245.91,647.34l-14.91.12v-.12c0-10,6.73-18.3,14.91-18.3s14.9,8.26,14.9,18.3Z"/><circle class="cls-26" cx="1306.44" cy="609.17" r="18.97"/><g class="cls-27"><rect class="cls-28" x="1311.38" y="634.69" width="43.48" height="17.88" rx="8.94"/><ellipse class="cls-28" cx="1316.46" cy="634.69" rx="9.32" ry="9.52"/><ellipse class="cls-28" cx="1328.32" cy="630.94" rx="9.32" ry="9.52"/><ellipse class="cls-28" cx="1357.68" cy="638.73" rx="9.32" ry="9.52"/><path class="cls-28" d="M1357.68,652.57l-9.31.06v-.06a9.32,9.32,0,1,1,18.63,0Z"/><path class="cls-28" d="M1308.56,652.43l-9.32.07v-.07c0-6.41,4.21-11.68,9.32-11.68s9.32,5.27,9.32,11.68Z"/><ellipse class="cls-28" cx="1346.39" cy="628.06" rx="11.86" ry="12.11"/></g><g class="cls-27"><rect class="cls-28" x="1155.36" y="750.25" width="46.97" height="19.31" rx="8.94"/><ellipse class="cls-28" cx="1160.85" cy="750.25" rx="10.06" ry="10.28"/><ellipse class="cls-28" cx="1173.65" cy="746.2" rx="10.06" ry="10.28"/><ellipse class="cls-28" cx="1205.37" cy="754.61" rx="10.06" ry="10.28"/><path class="cls-28" d="M1205.37,769.56l-10.06.07v-.07a10.07,10.07,0,1,1,20.13,0Z"/><path class="cls-28" d="M1152.31,769.41l-10.07.08v-.08c0-6.92,4.54-12.62,10.07-12.62s10.06,5.7,10.06,12.62Z"/><ellipse class="cls-28" cx="1193.17" cy="743.08" rx="12.81" ry="13.08"/></g><g class="cls-27"><rect class="cls-28" x="1220.36" y="273.25" width="46.97" height="19.31" rx="8.94"/><ellipse class="cls-28" cx="1225.85" cy="273.25" rx="10.06" ry="10.28"/><ellipse class="cls-28" cx="1238.65" cy="269.2" rx="10.06" ry="10.28"/><ellipse class="cls-28" cx="1270.37" cy="277.61" rx="10.06" ry="10.28"/><path class="cls-28" d="M1270.37,292.56l-10.06.07v-.07a10.07,10.07,0,1,1,20.13,0Z"/><path class="cls-28" d="M1217.31,292.41l-10.07.08v-.08c0-6.92,4.54-12.62,10.07-12.62s10.06,5.7,10.06,12.62Z"/><ellipse class="cls-28" cx="1258.17" cy="266.08" rx="12.81" ry="13.08"/></g><circle class="cls-29" cx="1482.36" cy="90.02" r="55.84"/><ellipse class="cls-30" cx="1037.52" cy="142.52" rx="17.32" ry="23.13" transform="matrix(0.09, -1, 1, 0.09, 802.61, 1163.09)"/><path class="cls-30" d="M1014.17,172.34h0c-4.26-1.08-6.73-4.5-5.52-7.66l9.25-24.17c1.21-3.15,5.63-4.83,9.89-3.76h0c4.26,1.08,6.73,4.5,5.52,7.65l-9.25,24.17C1022.85,171.73,1018.43,173.41,1014.17,172.34Z"/><path class="cls-30" d="M1021.72,189h0c-2.75-.7-4.35-2.92-3.57-4.95l15.94-41.63c.78-2,3.64-3.13,6.4-2.43h0c2.75.69,4.35,2.91,3.57,4.95l-15.94,41.62C1027.34,188.57,1024.48,189.66,1021.72,189Z"/><path class="cls-30" d="M1044.34,174.06h0c-2.76-.7-4.36-2.91-3.58-4.95l9.51-24.84c.78-2,3.65-3.13,6.4-2.44h0c2.76.7,4.36,2.91,3.58,4.95l-9.51,24.84C1050,173.66,1047.09,174.75,1044.34,174.06Z"/><ellipse class="cls-30" cx="1066.15" cy="150.85" rx="4.99" ry="12.64" transform="translate(681.08 1156.41) rotate(-77.1)"/><ellipse class="cls-30" cx="1079.22" cy="191.24" rx="4.99" ry="12.64" transform="translate(792.05 1248.98) rotate(-84.86)"/><ellipse class="cls-30" cx="1061.72" cy="141.63" rx="4.99" ry="10.78" transform="translate(697.24 1148.84) rotate(-77.7)"/><ellipse class="cls-30" cx="1085.96" cy="197.74" rx="9.93" ry="3.6" transform="translate(-13.98 105.28) rotate(-5.51)"/><ellipse class="cls-30" cx="1068.14" cy="197.74" rx="9.93" ry="3.6" transform="translate(-14.06 103.57) rotate(-5.51)"/><ellipse class="cls-30" cx="1051.08" cy="133.06" rx="4.99" ry="10.78" transform="translate(697.24 1131.7) rotate(-77.7)"/><ellipse class="cls-30" cx="1046.85" cy="125.94" rx="4.99" ry="5.23" transform="translate(700.87 1121.96) rotate(-77.7)"/><ellipse class="cls-30" cx="1057.55" cy="128.31" rx="4.99" ry="5.23" transform="translate(706.97 1134.28) rotate(-77.7)"/><ellipse class="cls-30" cx="1051.61" cy="129.5" rx="4.99" ry="5.23" transform="translate(216.44 781.53) rotate(-45)"/><ellipse class="cls-30" cx="1074.18" cy="141.38" rx="4.99" ry="5.23" transform="translate(707.29 1160.81) rotate(-77.7)"/><ellipse class="cls-30" cx="1074.18" cy="147.32" rx="4.99" ry="5.23" transform="translate(701.48 1165.49) rotate(-77.7)"/><ellipse class="cls-30" cx="1064.67" cy="131.88" rx="4.99" ry="5.23" transform="translate(709.09 1144.05) rotate(-77.7)"/><ellipse class="cls-30" cx="1068.24" cy="137.82" rx="4.99" ry="5.23" transform="translate(706.1 1152.2) rotate(-77.7)"/><ellipse class="cls-30" cx="1063.49" cy="136.63" rx="4.99" ry="5.23" transform="matrix(0.21, -0.98, 0.98, 0.21, 703.52, 1146.63)"/><ellipse class="cls-30" cx="1037.35" cy="125.94" rx="4.99" ry="5.23" transform="translate(693.39 1112.67) rotate(-77.7)"/><ellipse class="cls-30" cx="1058.4" cy="155.61" rx="3.14" ry="4.15" transform="translate(703.33 1164.75) rotate(-78.98)"/><ellipse class="cls-30" cx="1045.37" cy="171.46" rx="3.14" ry="4.15" transform="translate(677.23 1164.78) rotate(-78.98)"/><ellipse class="cls-30" cx="1047.29" cy="163.85" rx="3.14" ry="4.15" transform="translate(686.26 1160.51) rotate(-78.98)"/><ellipse class="cls-30" cx="1051.8" cy="154.68" rx="3.14" ry="4.15" transform="translate(698.9 1157.51) rotate(-78.98)"/><ellipse class="cls-30" cx="1054.6" cy="163.28" rx="3.14" ry="4.15" transform="translate(692.73 1167.22) rotate(-78.98)"/><ellipse class="cls-30" cx="1064.11" cy="191.79" rx="3.14" ry="4.15" transform="translate(672.43 1199.61) rotate(-78.98)"/><ellipse class="cls-30" cx="1037.82" cy="154.83" rx="3.17" ry="4.1" transform="translate(698.36 1147.71) rotate(-79.61)"/><ellipse class="cls-30" cx="1022.3" cy="159.01" rx="3.17" ry="4.1" transform="translate(681.52 1135.87) rotate(-79.61)"/><ellipse class="cls-30" cx="1044" cy="143.88" rx="3.14" ry="4.15" transform="translate(703.2 1141.12) rotate(-78.98)"/><ellipse class="cls-30" cx="1050.21" cy="143.23" rx="3.14" ry="4.15" transform="translate(708.85 1146.7) rotate(-78.98)"/><ellipse class="cls-30" cx="1052.3" cy="148.18" rx="3.14" ry="4.15" transform="translate(705.69 1152.74) rotate(-78.98)"/><ellipse class="cls-30" cx="1013.09" cy="146.99" rx="3.14" ry="4.15" transform="translate(675.15 1113.3) rotate(-78.98)"/><ellipse class="cls-30" cx="1013.09" cy="141.05" rx="3.14" ry="4.15" transform="translate(680.98 1108.5) rotate(-78.98)"/><ellipse class="cls-30" cx="1011.44" cy="184.1" rx="4.29" ry="4.36" transform="translate(88.7 637.38) rotate(-36.48)"/><ellipse class="cls-30" cx="1030.74" cy="181.82" rx="3.61" ry="2.74" transform="translate(-12.7 99.9) rotate(-5.51)"/><ellipse class="cls-30" cx="1015.46" cy="169.11" rx="4.1" ry="5.46" transform="translate(731.63 1158.65) rotate(-83.45)"/><ellipse class="cls-30" cx="1024.33" cy="148.52" rx="4.1" ry="5.46" transform="translate(759.94 1149.23) rotate(-83.45)"/><ellipse class="cls-30" cx="1041.29" cy="148.38" rx="4.1" ry="5.46" transform="translate(775.1 1165.95) rotate(-83.45)"/><ellipse class="cls-30" cx="1031.61" cy="149.9" rx="4.1" ry="5.46" transform="translate(765.02 1157.68) rotate(-83.45)"/><ellipse class="cls-30" cx="1011.63" cy="173.56" rx="4.1" ry="5.46" transform="translate(813.24 1180.62) rotate(-88.59)"/><ellipse class="cls-30" cx="820.71" cy="271.98" rx="11.74" ry="15.68" transform="translate(476.29 1065.02) rotate(-84.86)"/><path class="cls-30" d="M804.88,292.2h0c-2.88-.73-4.56-3.06-3.74-5.19l6.27-16.39c.82-2.13,3.82-3.28,6.71-2.55h0c2.88.73,4.56,3.05,3.74,5.19l-6.27,16.39C810.77,291.78,807.77,292.92,804.88,292.2Z"/><path class="cls-30" d="M810,303.47h0c-1.86-.47-3-2-2.42-3.36l10.81-28.22c.53-1.38,2.47-2.12,4.34-1.65h0c1.86.48,2.95,2,2.42,3.36l-10.81,28.22C813.82,303.2,811.87,303.94,810,303.47Z"/><path class="cls-30" d="M825.34,293.36h0c-1.87-.47-3-2-2.43-3.35l6.45-16.84c.53-1.39,2.47-2.13,4.34-1.65h0c1.87.47,2.95,2,2.42,3.35l-6.45,16.84C829.15,293.1,827.2,293.83,825.34,293.36Z"/><ellipse class="cls-30" cx="840.12" cy="277.63" rx="3.38" ry="8.57" transform="translate(381.94 1034.57) rotate(-77.1)"/><ellipse class="cls-30" cx="848.98" cy="305.01" rx="3.38" ry="8.57" transform="translate(469.13 1123.25) rotate(-84.86)"/><ellipse class="cls-30" cx="837.12" cy="271.38" rx="3.38" ry="7.31" transform="translate(393.7 1031.51) rotate(-77.7)"/><ellipse class="cls-30" cx="853.55" cy="309.42" rx="6.73" ry="2.44" transform="translate(-25.79 83.46) rotate(-5.51)"/><ellipse class="cls-30" cx="841.47" cy="309.42" rx="6.73" ry="2.44" transform="translate(-25.84 82.3) rotate(-5.51)"/><ellipse class="cls-30" cx="829.91" cy="265.57" rx="3.38" ry="7.31" transform="translate(393.7 1019.89) rotate(-77.7)"/><ellipse class="cls-30" cx="827.04" cy="260.74" rx="3.38" ry="3.55" transform="translate(396.16 1013.29) rotate(-77.7)"/><ellipse class="cls-30" cx="834.29" cy="262.35" rx="3.38" ry="3.55" transform="translate(400.29 1021.64) rotate(-77.7)"/><ellipse class="cls-30" cx="830.26" cy="263.16" rx="3.38" ry="3.55" transform="translate(57.1 664.16) rotate(-45)"/><ellipse class="cls-30" cx="845.57" cy="271.21" rx="3.38" ry="3.55" transform="translate(400.51 1039.63) rotate(-77.7)"/><ellipse class="cls-30" cx="845.57" cy="275.24" rx="3.38" ry="3.55" transform="translate(396.58 1042.8) rotate(-77.7)"/><ellipse class="cls-30" cx="839.12" cy="264.77" rx="3.38" ry="3.55" transform="translate(401.73 1028.26) rotate(-77.7)"/><ellipse class="cls-30" cx="841.54" cy="268.79" rx="3.38" ry="3.55" transform="translate(399.7 1033.79) rotate(-77.7)"/><ellipse class="cls-30" cx="838.32" cy="267.99" rx="3.38" ry="3.55" transform="translate(397.95 1030.01) rotate(-77.7)"/><ellipse class="cls-30" cx="820.6" cy="260.74" rx="3.38" ry="3.55" transform="translate(391.09 1006.99) rotate(-77.7)"/><ellipse class="cls-30" cx="834.87" cy="280.86" rx="2.13" ry="2.81" transform="translate(399.6 1046.64) rotate(-78.98)"/><ellipse class="cls-30" cx="826.04" cy="291.6" rx="2.13" ry="2.81" transform="translate(381.9 1046.66) rotate(-78.98)"/><ellipse class="cls-30" cx="827.34" cy="286.44" rx="2.13" ry="2.81" transform="matrix(0.19, -0.98, 0.98, 0.19, 388.02, 1043.77)"/><ellipse class="cls-30" cx="830.39" cy="280.22" rx="2.13" ry="2.81" transform="translate(396.59 1041.74) rotate(-78.98)"/><ellipse class="cls-30" cx="832.3" cy="286.06" rx="2.13" ry="2.81" transform="translate(392.41 1048.32) rotate(-78.98)"/><ellipse class="cls-30" cx="838.74" cy="305.39" rx="2.13" ry="2.81" transform="translate(378.65 1070.28) rotate(-78.98)"/><ellipse class="cls-30" cx="820.92" cy="280.33" rx="2.15" ry="2.78" transform="translate(397.13 1037.23) rotate(-79.61)"/><ellipse class="cls-30" cx="810.39" cy="283.16" rx="2.15" ry="2.78" transform="translate(385.72 1029.2) rotate(-79.61)"/><ellipse class="cls-30" cx="825.11" cy="272.9" rx="2.13" ry="2.81" transform="translate(399.51 1030.62) rotate(-78.98)"/><ellipse class="cls-30" cx="829.32" cy="272.47" rx="2.13" ry="2.81" transform="translate(403.34 1034.41) rotate(-78.98)"/><ellipse class="cls-30" cx="830.73" cy="275.82" rx="2.13" ry="2.81" transform="translate(401.19 1038.5) rotate(-78.98)"/><ellipse class="cls-30" cx="804.16" cy="275.01" rx="2.13" ry="2.81" transform="translate(380.49 1011.76) rotate(-78.98)"/><ellipse class="cls-30" cx="804.16" cy="270.99" rx="2.13" ry="2.81" transform="translate(384.44 1008.51) rotate(-78.98)"/><ellipse class="cls-30" cx="803.04" cy="300.17" rx="2.91" ry="2.95" transform="translate(-21.13 536.22) rotate(-36.48)"/><ellipse class="cls-30" cx="816.12" cy="298.62" rx="2.45" ry="1.86" transform="translate(-24.92 79.82) rotate(-5.51)"/><ellipse class="cls-30" cx="805.76" cy="290.01" rx="2.78" ry="3.7" transform="translate(425.73 1057.43) rotate(-83.45)"/><ellipse class="cls-30" cx="811.77" cy="276.05" rx="2.78" ry="3.7" transform="translate(444.93 1051.04) rotate(-83.45)"/><ellipse class="cls-30" cx="823.27" cy="275.96" rx="2.78" ry="3.7" transform="translate(455.21 1062.38) rotate(-83.45)"/><ellipse class="cls-30" cx="816.71" cy="276.99" rx="2.78" ry="3.7" transform="translate(448.37 1056.77) rotate(-83.45)"/><ellipse class="cls-30" cx="803.16" cy="293.03" rx="2.78" ry="3.7" transform="translate(490.47 1088.74) rotate(-88.59)"/><ellipse class="cls-30" cx="787.2" cy="329.82" rx="25.54" ry="3.56"/><ellipse class="cls-30" cx="984.41" cy="246.66" rx="25.54" ry="3.56"/><ellipse class="cls-30" cx="799.41" cy="344.66" rx="21.59" ry="3.34"/><ellipse class="cls-30" cx="1015.41" cy="226.66" rx="25.54" ry="3.56"/><path class="cls-10" d="M702.66,432.54a3.27,3.27,0,0,1,2.7-4.89l15.25.05,15.25.05a3.27,3.27,0,0,1,2.67,4.9l-7.67,13.9-7.67,13.89a3,3,0,0,1-5.36,0l-7.59-13.94Z"/><ellipse class="cls-31" cx="919.85" cy="782.25" rx="33.44" ry="35.25"/><ellipse class="cls-32" cx="955.35" cy="783.79" rx="13.65" ry="13.71"/><ellipse class="cls-33" cx="959.5" cy="806.25" rx="15.5" ry="14.25"/><ellipse class="cls-34" cx="978.35" cy="788.79" rx="13.65" ry="13.71"/><ellipse class="cls-35" cx="985.35" cy="773.79" rx="13.65" ry="13.71"/><ellipse class="cls-36" cx="967.35" cy="769.79" rx="13.65" ry="13.71"/><ellipse class="cls-37" cx="946.35" cy="764.79" rx="13.65" ry="13.71"/><rect class="cls-38" x="902.1" y="785.43" width="9.49" height="112.57" rx="4.09"/><rect class="cls-38" x="886.41" y="778.78" width="9.49" height="49.61" rx="4.09"/><rect class="cls-39" x="918.61" y="793.91" width="9.49" height="68.97" rx="4.09"/><rect class="cls-39" x="941.32" y="789.07" width="9.49" height="49" rx="4.09"/><rect class="cls-39" x="971.32" y="772.07" width="9.49" height="76.94" rx="4.09"/><rect class="cls-38" x="932.65" y="792.09" width="9.49" height="68.97" rx="4.09"/><rect class="cls-38" x="950.65" y="804.09" width="9.49" height="56.91" rx="4.09"/><rect class="cls-40" x="926.87" y="773.34" width="9.49" height="68.97" rx="4.09"/><rect class="cls-41" x="886" y="777.57" width="35.92" height="18.75" rx="8.08"/><rect class="cls-42" x="909.94" y="786.64" width="9.49" height="91.36" rx="4.09"/><rect class="cls-43" x="959.94" y="777.65" width="9.49" height="112.35" rx="4.09"/><rect class="cls-44" x="892.61" y="784.23" width="9.49" height="68.97" rx="4.09"/><ellipse class="cls-45" cx="886.35" cy="783.79" rx="13.65" ry="13.71"/><ellipse class="cls-18" cx="931.85" cy="794.04" rx="2.96" ry="18.15"/><ellipse class="cls-18" cx="838.85" cy="647.04" rx="2.96" ry="18.15"/><ellipse class="cls-18" cx="964.94" cy="783" rx="2.06" ry="12"/><ellipse class="cls-18" cx="914.44" cy="808.04" rx="1.56" ry="14.04"/><ellipse class="cls-18" cx="823.44" cy="654.04" rx="1.56" ry="14.04"/><circle class="cls-46" cx="983.5" cy="858.5" r="5.5"/><circle class="cls-39" cx="993.5" cy="820.5" r="4.5"/><circle class="cls-38" cx="948.5" cy="878.5" r="4.5"/><circle class="cls-46" cx="806.5" cy="712.5" r="3.5"/><circle class="cls-46" cx="813.5" cy="742.5" r="4.5"/><circle class="cls-39" cx="797.5" cy="693.5" r="3.5"/><path class="cls-47" d="M851.23,493.67C839.33,490.08,833,476.35,837,463s16.94-21.26,28.83-17.67"/><path class="cls-47" d="M846.5,490c12.43,0,22.5,11.3,22.5,25.25s-10.07,25.25-22.5,25.25"/><path class="cls-47" d="M837.5,577c12.43,0,22.5,11.3,22.5,25.25s-10.07,25.25-22.5,25.25"/><path class="cls-47" d="M843,576.5c-12.43,0-22.5-8.17-22.5-18.25S830.57,540,843,540"/><ellipse class="cls-48" cx="832.18" cy="645.78" rx="28.82" ry="26.07"/><ellipse class="cls-49" cx="855.18" cy="647" rx="16.82" ry="21"/><ellipse class="cls-50" cx="813.07" cy="641.93" rx="18.71" ry="16.93"/><rect class="cls-38" x="816.88" y="644.21" width="8.18" height="52.15" rx="4.09"/><rect class="cls-38" x="803.36" y="638.48" width="8.18" height="42.76" rx="4.09"/><rect class="cls-39" x="831.11" y="651.52" width="8.18" height="59.45" rx="4.09"/><rect class="cls-39" x="850.68" y="647.34" width="8.18" height="42.24" rx="4.09"/><rect class="cls-38" x="843.21" y="649.95" width="8.18" height="59.45" rx="4.09"/><rect class="cls-51" x="838.23" y="633.79" width="8.18" height="59.45" rx="4.09"/><rect class="cls-52" x="823.64" y="645.26" width="8.18" height="78.74" rx="4.09"/><rect class="cls-53" x="808.69" y="643.17" width="8.18" height="59.45" rx="4.09"/><polygon class="cls-54" points="298.84 276.83 294.28 268.15 284.54 266.98 291.39 259.96 289.49 250.33 298.29 254.68 306.85 249.9 305.44 259.61 312.63 266.28 302.96 267.93 298.84 276.83"/><polygon class="cls-55" points="545.84 725.83 541.28 717.15 531.54 715.98 538.39 708.96 536.49 699.33 545.29 703.68 553.85 698.9 552.44 708.61 559.63 715.28 549.96 716.93 545.84 725.83"/><polygon class="cls-56" points="311.92 431.21 298.99 430.04 290.69 440.03 287.81 427.37 275.75 422.57 286.9 415.91 287.74 402.95 297.51 411.5 310.09 408.29 304.99 420.23 311.92 431.21"/><polygon class="cls-57" points="278.27 716.1 271.89 713.27 265.95 716.92 266.67 709.98 261.36 705.45 268.18 703.99 270.85 697.54 274.35 703.58 281.3 704.12 276.64 709.31 278.27 716.1"/><polygon class="cls-58" points="288.27 832.1 281.89 829.27 275.95 832.92 276.67 825.98 271.36 821.45 278.18 819.99 280.85 813.54 284.35 819.58 291.3 820.12 286.64 825.31 288.27 832.1"/><polygon class="cls-59" points="444.1 657.91 436.6 654.58 429.61 658.87 430.46 650.72 424.22 645.4 432.24 643.68 435.37 636.11 439.48 643.2 447.65 643.84 442.18 649.94 444.1 657.91"/><polygon class="cls-60" points="461.1 745.91 453.6 742.58 446.61 746.87 447.46 738.72 441.22 733.4 449.24 731.68 452.37 724.11 456.48 731.2 464.65 731.84 459.18 737.94 461.1 745.91"/><polygon class="cls-61" points="454.41 852.5 447.49 856.9 447.2 865.09 440.88 859.88 432.99 862.13 436 854.5 431.42 847.7 439.61 848.2 444.66 841.75 446.71 849.69 454.41 852.5"/><polygon class="cls-62" points="783.1 875.1 778.47 878.05 778.27 883.55 774.03 880.05 768.75 881.56 770.76 876.45 767.69 871.89 773.18 872.23 776.57 867.9 777.94 873.22 783.1 875.1"/><polygon class="cls-63" points="636.1 823.91 628.6 820.58 621.61 824.87 622.46 816.72 616.22 811.4 624.24 809.68 627.37 802.11 631.48 809.2 639.65 809.84 634.18 815.94 636.1 823.91"/><polygon class="cls-64" points="729.1 728.91 721.6 725.58 714.61 729.87 715.46 721.72 709.22 716.4 717.24 714.68 720.37 707.11 724.48 714.2 732.65 714.84 727.18 720.94 729.1 728.91"/><polygon class="cls-65" points="82.97 477.53 78.73 469.18 69.45 467.95 76.08 461.33 74.39 452.13 82.73 456.39 90.96 451.93 89.49 461.18 96.27 467.63 87.02 469.09 82.97 477.53"/><polygon class="cls-66" points="641.97 664.53 637.73 656.18 628.46 654.95 635.08 648.33 633.39 639.13 641.73 643.39 649.96 638.93 648.49 648.18 655.27 654.63 646.02 656.09 641.97 664.53"/><polygon class="cls-67" points="686.82 63.66 677.86 59.68 669.49 64.81 670.51 55.05 663.04 48.69 672.64 46.64 676.38 37.57 681.3 46.06 691.08 46.82 684.53 54.12 686.82 63.66"/><polygon class="cls-68" points="692.82 270.66 683.86 266.68 675.49 271.81 676.51 262.06 669.04 255.69 678.64 253.64 682.38 244.57 687.3 253.06 697.08 253.82 690.53 261.12 692.82 270.66"/><polygon class="cls-69" points="167.82 628.66 158.85 624.68 150.49 629.81 151.51 620.05 144.04 613.69 153.64 611.64 157.38 602.57 162.3 611.06 172.08 611.82 165.53 619.12 167.82 628.66"/><polygon class="cls-70" points="114.82 820.66 105.86 816.68 97.49 821.81 98.51 812.05 91.04 805.69 100.64 803.64 104.38 794.57 109.3 803.06 119.08 803.82 112.53 811.12 114.82 820.66"/><polygon class="cls-71" points="753.82 171.66 744.86 167.68 736.49 172.81 737.51 163.06 730.04 156.69 739.64 154.64 743.38 145.57 748.3 154.06 758.08 154.82 751.53 162.12 753.82 171.66"/><polygon class="cls-72" points="215.57 219.87 217.92 208.14 209.59 199.55 221.48 198.16 227.07 187.58 232.07 198.46 243.86 200.51 235.06 208.62 236.75 220.47 226.31 214.6 215.57 219.87"/><polygon class="cls-73" points="324.76 114.95 332.5 109.84 332.68 100.56 339.93 106.35 348.81 103.65 345.55 112.33 350.85 119.94 341.59 119.52 335.99 126.92 333.52 117.98 324.76 114.95"/><polygon class="cls-74" points="392.96 44.4 398.18 40.95 398.3 34.71 403.18 38.6 409.16 36.79 406.97 42.64 410.54 47.76 404.3 47.48 400.53 52.46 398.87 46.44 392.96 44.4"/><polygon class="cls-75" points="464.96 223.4 470.18 219.95 470.3 213.71 475.18 217.6 481.16 215.79 478.97 221.64 482.54 226.76 476.3 226.48 472.53 231.46 470.87 225.44 464.96 223.4"/><polygon class="cls-76" points="522.96 135.4 528.18 131.95 528.3 125.71 533.18 129.6 539.16 127.79 536.97 133.64 540.54 138.76 534.3 138.48 530.53 143.46 528.87 137.44 522.96 135.4"/><polygon class="cls-77" points="477.96 74.39 483.18 70.95 483.3 64.71 488.18 68.6 494.16 66.79 491.97 72.64 495.54 77.76 489.3 77.48 485.53 82.46 483.87 76.44 477.96 74.39"/><polygon class="cls-78" points="112.65 78.98 106.04 74.78 98.83 77.84 100.79 70.26 95.65 64.35 103.47 63.86 107.5 57.15 110.38 64.43 118.01 66.19 111.97 71.18 112.65 78.98"/><polygon class="cls-79" points="51.24 169.4 46.57 163.11 38.75 163.38 43.29 157 40.61 149.64 48.08 151.99 54.25 147.17 54.33 155 60.82 159.38 53.4 161.87 51.24 169.4"/><polygon class="cls-80" points="75.94 276.45 72.43 271.71 66.54 271.92 69.96 267.12 67.94 261.58 73.56 263.35 78.21 259.72 78.26 265.62 83.15 268.91 77.56 270.79 75.94 276.45"/><polygon class="cls-81" points="140.76 341.4 132.92 340.75 127.95 346.84 126.14 339.19 118.81 336.34 125.53 332.26 125.98 324.4 131.94 329.54 139.54 327.54 136.51 334.79 140.76 341.4"/><polygon class="cls-82" points="71.76 718.4 63.92 717.75 58.95 723.84 57.14 716.19 49.81 713.34 56.53 709.26 56.98 701.4 62.94 706.54 70.55 704.53 67.51 711.79 71.76 718.4"/><polygon class="cls-83" points="671.39 313.96 531.86 316.74 392.32 319.52 461.47 287.07 530.62 254.62 601.01 284.29 671.39 313.96"/><rect class="cls-18" x="465.85" y="332.19" width="26.14" height="36.83" rx="6.5"/><rect x="478" y="333" width="1" height="35" rx="0.5"/><rect x="466" y="349" width="25" height="1" rx="0.5"/><rect class="cls-18" x="579.85" y="333.19" width="26.14" height="36.83" rx="6.5"/><rect x="592" y="334" width="1" height="35" rx="0.5"/><rect x="580" y="350" width="25" height="1" rx="0.5"/><ellipse cx="915.86" cy="134.77" rx="6.54" ry="12.42" transform="matrix(0.15, -0.99, 0.99, 0.15, 643.19, 1019.42)"/><ellipse cx="939.12" cy="138.35" rx="6.54" ry="12.42" transform="translate(659.37 1045.45) rotate(-81.24)"/><ellipse class="cls-1" cx="938.63" cy="141.58" rx="7.19" ry="12.42" transform="translate(655.75 1047.7) rotate(-81.24)"/><ellipse class="cls-1" cx="915.36" cy="138" rx="7.19" ry="12.42" transform="translate(639.57 1021.67) rotate(-81.24)"/><ellipse cx="886.63" cy="185.54" rx="8.05" ry="4.24" transform="translate(-15.89 108.16) rotate(-6.92)"/><ellipse cx="901.77" cy="183.71" rx="8.05" ry="4.24" transform="translate(-15.56 109.97) rotate(-6.92)"/><ellipse class="cls-1" cx="902.02" cy="185.81" rx="8.05" ry="4.66" transform="translate(-15.81 110.02) rotate(-6.92)"/><ellipse class="cls-1" cx="886.88" cy="187.64" rx="8.05" ry="4.66" transform="translate(-16.15 108.21) rotate(-6.92)"/><ellipse cx="903.72" cy="238.59" rx="5.9" ry="3.11" transform="translate(-22.16 110.61) rotate(-6.92)"/><ellipse cx="914.83" cy="237.24" rx="5.9" ry="3.11" transform="matrix(0.99, -0.12, 0.12, 0.99, -21.92, 111.93)"/><ellipse class="cls-1" cx="915.01" cy="238.79" rx="5.9" ry="3.42" transform="translate(-22.1 111.97) rotate(-6.92)"/><ellipse class="cls-1" cx="903.91" cy="240.13" rx="5.9" ry="3.42" transform="translate(-22.35 110.64) rotate(-6.92)"/><ellipse class="cls-18" cx="841.94" cy="645" rx="2.06" ry="12"/><ellipse class="cls-18" cx="811.94" cy="645" rx="2.06" ry="12"/><ellipse class="cls-18" cx="827.94" cy="654" rx="2.06" ry="12"/><ellipse class="cls-18" cx="856.94" cy="610" rx="12" ry="2.06" transform="translate(99.36 1339.74) rotate(-79.37)"/><ellipse class="cls-18" cx="838.94" cy="575" rx="2.06" ry="12" transform="translate(-129.16 886.8) rotate(-52.28)"/><ellipse class="cls-18" cx="839.94" cy="539" rx="12" ry="2.06" transform="translate(-142.71 364.61) rotate(-22.63)"/><ellipse class="cls-18" cx="867.94" cy="513" rx="2.06" ry="12" transform="translate(-35.6 65.68) rotate(-4.25)"/><ellipse class="cls-18" cx="837.94" cy="476" rx="2.06" ry="12" transform="translate(-32.95 63.35) rotate(-4.25)"/><rect class="cls-10" x="552.14" y="413.67" width="28.53" height="137.35" rx="12" transform="matrix(-1, 0, 0, -1, 1135, 962.1)"/><path d="M1310.5,856.55v-1.74h4.14v1.74Z"/><path d="M1326.31,851a2.48,2.48,0,0,1,2.16-1.11c3.27,0,3.3,4.26,3.3,6.66,0,2.88-.09,7.17-3.15,7.17a2.8,2.8,0,0,1-2.31-1.29v1.08h-1.68V841.67h1.68Zm1.74.24c-1.74,0-1.89,2.82-1.89,5.49,0,1.17,0,4.32.84,5.16a1.33,1.33,0,0,0,1.08.45c1.56,0,1.74-1.92,1.86-3.09s.09-2.1.09-3.15C1330,854.78,1330,851.27,1328.05,851.27Z"/><path d="M1336.33,868.94h-1.8l1.5-5.76-3.18-13h1.71l1.68,7.44a33,33,0,0,1,.63,3.36c.12-.84.33-1.65.54-2.52l1.95-8.28h1.77Z"/><path d="M1353.37,860.66a8.43,8.43,0,0,1,0,.87c-.15,1.62-1.32,2.31-2.85,2.31a4.9,4.9,0,0,1-2.16-.54v-1.92a2.81,2.81,0,0,0,1.86.84c1.29,0,1.32-1.05,1.32-2V843.53h1.86Z"/><path d="M1363.48,860.27a3.48,3.48,0,0,1-7,0V850.13h1.68v9.09c0,1.38.06,2.94,1.86,2.94s1.74-1.8,1.74-3.12v-8.91h1.68Z"/><path d="M1366.48,863.54V841.67h1.71v21.87Z"/><path d="M1372,847.16a1.26,1.26,0,1,1,1.23-1.23A1.24,1.24,0,0,1,1372,847.16Zm-.87,16.38V850.13h1.71v13.41Z"/><path d="M1382.62,859c-.09,2.16-.75,4.77-3.39,4.77-3.45,0-3.9-4.29-3.9-6.87,0-2.43.51-7,3.78-7s3.63,4.05,3.63,6.42c0,.27,0,.57,0,.84H1377v.3c0,1.35.21,4.68,2.13,4.68,1.5,0,1.71-2,1.74-3.18Zm-1.56-3.24c-.06-1.2-.21-4.26-1.92-4.26s-2,3-2.07,4.26Z"/><path d="M1392.37,863.54v-20h1.86v18.3h4.32v1.71Z"/><path d="M1406.89,859c-.09,2.16-.75,4.77-3.39,4.77-3.45,0-3.9-4.29-3.9-6.87,0-2.43.51-7,3.78-7s3.63,4.05,3.63,6.42c0,.27,0,.57,0,.84h-5.67v.3c0,1.35.21,4.68,2.13,4.68,1.5,0,1.71-2,1.74-3.18Zm-1.56-3.24c-.06-1.2-.21-4.26-1.92-4.26s-2,3-2.07,4.26Z"/><path d="M1412.92,863.54h-1.83L1408,850.13h1.74l1.77,8c.21,1,.36,1.92.48,2.88.15-.93.3-1.89.48-2.82l1.65-8.07h1.74Z"/><path d="M1418.44,847.16a1.26,1.26,0,1,1,1.23-1.23A1.24,1.24,0,0,1,1418.44,847.16Zm-.87,16.38V850.13h1.71v13.41Z"/><path d="M1427.47,863.54v-9.75c0-1.08,0-2.49-1.5-2.49a1.89,1.89,0,0,0-1.59.87,4.16,4.16,0,0,0-.45,2.34v9h-1.68V850.13h1.68v1.08a3.5,3.5,0,0,1,2.61-1.29c2.25,0,2.61,1.86,2.61,3.69v9.93Z"/><path d="M1441.68,843.53c4,0,5.07,1.77,5.07,5.55,0,3.51-1.35,4.89-4.86,4.89h-.75v9.57h-1.85v-20Zm.7,8.73c2.33,0,2.48-1.65,2.48-3.54,0-2.1-.42-3.48-2.82-3.48h-.9v7Z"/><path d="M1454.85,859c-.09,2.16-.75,4.77-3.39,4.77-3.44,0-3.89-4.29-3.89-6.87,0-2.43.51-7,3.77-7s3.63,4.05,3.63,6.42c0,.27,0,.57,0,.84h-5.67v.3c0,1.35.21,4.68,2.13,4.68,1.5,0,1.71-2,1.73-3.18Zm-1.56-3.24c0-1.2-.21-4.26-1.91-4.26s-2,3-2.08,4.26Z"/><path d="M1459.65,851.69v11.85H1458V851.69h-1.43v-1.56H1458v-3.81h1.68v3.81h2.25v1.56Z"/><path d="M1470.15,859c-.09,2.16-.75,4.77-3.39,4.77-3.45,0-3.89-4.29-3.89-6.87,0-2.43.51-7,3.77-7s3.63,4.05,3.63,6.42c0,.27,0,.57,0,.84h-5.67v.3c0,1.35.21,4.68,2.13,4.68,1.5,0,1.71-2,1.73-3.18Zm-1.56-3.24c0-1.2-.21-4.26-1.92-4.26s-2,3-2.07,4.26Z"/><path d="M1476.72,851.87c-2.25,0-2.28,1.8-2.28,3.54v8.13h-1.68V850.13h1.68v1.74a2.77,2.77,0,0,1,2.28-2Z"/><path d="M1483.68,852.86a3.16,3.16,0,0,0-2.31-1.38,1.67,1.67,0,0,0-1.65,1.77c0,2.61,4.32,3.09,4.32,6.72a3.62,3.62,0,0,1-3.6,3.78,4.06,4.06,0,0,1-2.49-.93v-2a3.42,3.42,0,0,0,2.37,1.32,2,2,0,0,0,2-2.07c0-2.64-4.32-3.54-4.32-6.78a3.25,3.25,0,0,1,3.33-3.39,4,4,0,0,1,2.4.87Z"/><path d="M1492.86,859c-.09,2.16-.75,4.77-3.39,4.77-3.45,0-3.9-4.29-3.9-6.87,0-2.43.51-7,3.78-7s3.63,4.05,3.63,6.42c0,.27,0,.57,0,.84h-5.67v.3c0,1.35.21,4.68,2.13,4.68,1.5,0,1.71-2,1.74-3.18Zm-1.56-3.24c-.06-1.2-.21-4.26-1.92-4.26s-2,3-2.07,4.26Z"/><path d="M1500.69,863.54v-9.75c0-1.08,0-2.49-1.5-2.49a1.89,1.89,0,0,0-1.59.87,4.16,4.16,0,0,0-.45,2.34v9h-1.68V850.13h1.68v1.08a3.5,3.5,0,0,1,2.61-1.29c2.25,0,2.61,1.86,2.61,3.69v9.93Z"/><path class="cls-84" d="M1255.79,806.29a5.62,5.62,0,0,0-.49-1.24,2,2,0,0,0-.67-.74,1.92,1.92,0,0,0-1-.25,5.74,5.74,0,0,0-1.43.23,22.07,22.07,0,0,0-2.91,1.11l-.65-1.51c1-.51,2.2-1.06,3.45-1.64s2.54-1.15,3.87-1.72,2.68-1.1,4-1.6,2.68-.94,4-1.3a24.09,24.09,0,0,1,4.89-.89,11.54,11.54,0,0,1,4.34.46,8.15,8.15,0,0,1,3.47,2.21,10.31,10.31,0,0,1,2.27,4.34,15.27,15.27,0,0,1,.55,6.1,12.67,12.67,0,0,1-1.82,5.2,14,14,0,0,1-3.93,4.05,19.08,19.08,0,0,1-5.78,2.65,1.81,1.81,0,0,1-1.11.06q-.36-.13-.57-.9l-.07-.23q0-.18-.06-.27a16.81,16.81,0,0,0,4.3-1.79,11,11,0,0,0,2.73-2.31,8,8,0,0,0,1.45-2.6,10.2,10.2,0,0,0,.5-2.67,11.18,11.18,0,0,0-.14-2.54,21.68,21.68,0,0,0-.48-2.17,11.57,11.57,0,0,0-1.91-4.05,7.13,7.13,0,0,0-2.71-2.16,7.52,7.52,0,0,0-3.26-.61,14.64,14.64,0,0,0-3.61.57c-.62.18-1.21.37-1.76.58s-1.16.45-1.81.72c.23.91.54,2.13.93,3.65s.83,3.29,1.33,5.27,1,4.15,1.64,6.52l1.86,7.41q1,3.85,2,7.94c.68,2.72,1.35,5.43,2,8.13l-4,1.71-.33,0q-1.21-5.12-2.32-9.69c-.73-3.06-1.46-6-2.19-8.91s-1.47-5.73-2.22-8.54S1256.61,809.23,1255.79,806.29Z"/><path class="cls-84" d="M1303.91,826.67l.3.1a2,2,0,0,1,.36.16,2.23,2.23,0,0,1,.3.2.4.4,0,0,1,.15.25.28.28,0,0,1,0,.15,14.91,14.91,0,0,1-1.73,2.84,14,14,0,0,1-2.1,2.17,11,11,0,0,1-2.36,1.49,10.17,10.17,0,0,1-2.49.8,9.09,9.09,0,0,1-4.13-.16,9.75,9.75,0,0,1-3.54-1.84,11.68,11.68,0,0,1-2.68-3.23,13.29,13.29,0,0,1-1.54-4.29,18.3,18.3,0,0,1-.28-3.93,18.71,18.71,0,0,1,.55-3.9,17.92,17.92,0,0,1,1.36-3.6,13.83,13.83,0,0,1,2.15-3.1,12.34,12.34,0,0,1,2.9-2.32,11.11,11.11,0,0,1,3.66-1.32,8.86,8.86,0,0,1,2.61-.11,7,7,0,0,1,2.3.65,5.23,5.23,0,0,1,1.76,1.4,4.74,4.74,0,0,1,1,2.15,4.83,4.83,0,0,1-.61,3.43,9.72,9.72,0,0,1-2.88,2.93,24.26,24.26,0,0,1-4.68,2.45,58.75,58.75,0,0,1-6,2l0,.3a14.6,14.6,0,0,0,1.36,4.11,10.56,10.56,0,0,0,2.21,3,7.59,7.59,0,0,0,2.8,1.68,6.38,6.38,0,0,0,3.13.21,7.9,7.9,0,0,0,3.17-1.41A12.4,12.4,0,0,0,1303.91,826.67Zm-6-13.85a4.25,4.25,0,0,0-.57-1.5,4,4,0,0,0-1-1.11,3.69,3.69,0,0,0-1.33-.62,3.58,3.58,0,0,0-1.53,0,5.33,5.33,0,0,0-2,.8,5.91,5.91,0,0,0-1.51,1.44,7.87,7.87,0,0,0-1,1.9,12.22,12.22,0,0,0-.61,2.19,15.87,15.87,0,0,0-.26,2.3,18.42,18.42,0,0,0,0,2.24,33.07,33.07,0,0,0,4.47-1.46,15.36,15.36,0,0,0,3.21-1.76,5.89,5.89,0,0,0,1.83-2.05A3.56,3.56,0,0,0,1297.88,812.82Z"/><path class="cls-84" d="M1322.35,811.55a6.18,6.18,0,0,0-.7-2.46,4.9,4.9,0,0,0-3.22-2.47,5.94,5.94,0,0,0-2-.16,7.89,7.89,0,0,0-2.16.47,4.2,4.2,0,0,0-1.39.88,2.79,2.79,0,0,0-.7,1.19,4.17,4.17,0,0,0-.12,1.42,5,5,0,0,0,.48,1.73,6.69,6.69,0,0,0,1.09,1.64l-.06.21a4.67,4.67,0,0,1-2,.69,3.49,3.49,0,0,1-1.17-.08,2.72,2.72,0,0,1-1-.48,2.5,2.5,0,0,1-.7-.84,2.86,2.86,0,0,1-.34-1.16,4.2,4.2,0,0,1,.34-2.07,6.68,6.68,0,0,1,1.23-1.86,10.05,10.05,0,0,1,1.86-1.58,15.39,15.39,0,0,1,2.24-1.25,16.44,16.44,0,0,1,2.36-.88,13.4,13.4,0,0,1,2.23-.43,9.45,9.45,0,0,1,3.32.22,5.34,5.34,0,0,1,2.34,1.29,6.2,6.2,0,0,1,1.45,2.25,11.69,11.69,0,0,1,.67,3.11c.07.8.12,1.68.13,2.65s0,2,0,3,0,2.15.06,3.28.1,2.24.2,3.34a6.59,6.59,0,0,0,1.32,3.86,3,3,0,0,0,2.68,1.1,6.41,6.41,0,0,0,3.05-1.32l.6.74a9.08,9.08,0,0,1-2.5,2.09,7.4,7.4,0,0,1-3,.91,6.08,6.08,0,0,1-2.23-.2,4.77,4.77,0,0,1-1.84-1,5.29,5.29,0,0,1-1.3-1.89,8.74,8.74,0,0,1-.65-2.76c0-.31,0-.63-.06-1a8.83,8.83,0,0,1,0-1h-.11a26.61,26.61,0,0,1-1.54,3.25,17.34,17.34,0,0,1-2,2.92,11.82,11.82,0,0,1-2.45,2.17,6.26,6.26,0,0,1-2.87,1,5.94,5.94,0,0,1-2.33-.24,5.43,5.43,0,0,1-1.89-1,5.57,5.57,0,0,1-1.31-1.71,6.35,6.35,0,0,1-.61-2.26,6.92,6.92,0,0,1,.33-3,7.92,7.92,0,0,1,1.43-2.5,10.36,10.36,0,0,1,2.35-2,18.23,18.23,0,0,1,3.06-1.54,24.68,24.68,0,0,1,3.56-1.07,31,31,0,0,1,3.88-.59c0-.77,0-1.52,0-2.25S1322.42,812.41,1322.35,811.55Zm-10.09,13.52a6.33,6.33,0,0,0,.28,1.35,3.35,3.35,0,0,0,.59,1.09,2.54,2.54,0,0,0,.93.7,2.5,2.5,0,0,0,1.28.17,4.23,4.23,0,0,0,1.66-.53,8.08,8.08,0,0,0,1.63-1.21,12,12,0,0,0,1.48-1.76,13.88,13.88,0,0,0,1.21-2.18,13.36,13.36,0,0,0,.82-2.43,11.75,11.75,0,0,0,.32-2.58q-1.35.16-2.67.42a19.66,19.66,0,0,0-2.49.65,12.82,12.82,0,0,0-2.15,1,6.46,6.46,0,0,0-1.65,1.34,5.06,5.06,0,0,0-1,1.76A5.43,5.43,0,0,0,1312.26,825.07Z"/><path class="cls-84" d="M1350.14,810.89a4.53,4.53,0,0,0,.53-2,3.76,3.76,0,0,0-.24-1.35,3.19,3.19,0,0,0-.73-1.12,3.46,3.46,0,0,0-1.24-.78,4.77,4.77,0,0,0-1.72-.29,6.2,6.2,0,0,0-2.57.48,6.46,6.46,0,0,0-2,1.37,8.43,8.43,0,0,0-1.5,2,13.21,13.21,0,0,0-1,2.47,17.57,17.57,0,0,0-.6,2.7,21,21,0,0,0-.2,2.7,13.83,13.83,0,0,0,.59,4.29,10.55,10.55,0,0,0,1.63,3.31,7.5,7.5,0,0,0,2.42,2.13,6.16,6.16,0,0,0,3,.77,7.44,7.44,0,0,0,3.39-.84,11,11,0,0,0,3.34-2.79l.28.15a2.62,2.62,0,0,1,.32.23l.26.26a.4.4,0,0,1,.1.24c0,.05,0,.08,0,.09l0,.07a12.27,12.27,0,0,1-4.29,4.28,10.83,10.83,0,0,1-5.47,1.39,9.39,9.39,0,0,1-3-.46A9.18,9.18,0,0,1,1337,827a11.73,11.73,0,0,1-1.38-2.38,13.23,13.23,0,0,1-.82-2.68,14.83,14.83,0,0,1-.27-2.83,18.13,18.13,0,0,1,.45-3.85,18.65,18.65,0,0,1,1.26-3.71,18.3,18.3,0,0,1,2-3.32,14.57,14.57,0,0,1,2.65-2.67,11.76,11.76,0,0,1,3.27-1.77,10.77,10.77,0,0,1,3.79-.63,10.46,10.46,0,0,1,2.8.39,7.36,7.36,0,0,1,2.24,1.05,5.15,5.15,0,0,1,1.47,1.62,4.14,4.14,0,0,1,.52,2.1,3.58,3.58,0,0,1-.23,1.32,2.94,2.94,0,0,1-.65,1,2.62,2.62,0,0,1-1,.61,3.42,3.42,0,0,1-1.21.21,6.32,6.32,0,0,1-.84-.09,4.65,4.65,0,0,1-.85-.27Z"/><path class="cls-84" d="M1376.06,826.27l.27.19a3.47,3.47,0,0,1,.29.25,2.09,2.09,0,0,1,.23.29.42.42,0,0,1,.08.27.27.27,0,0,1-.07.14,15.91,15.91,0,0,1-2.47,2.23,13.54,13.54,0,0,1-2.63,1.47,10.75,10.75,0,0,1-2.69.76,10.49,10.49,0,0,1-2.62,0,9,9,0,0,1-3.91-1.33,9.75,9.75,0,0,1-2.86-2.79A11.51,11.51,0,0,1,1358,824a13.49,13.49,0,0,1-.24-4.55,18.41,18.41,0,0,1,2.5-7.43,17.1,17.1,0,0,1,2.34-3.06,14,14,0,0,1,2.94-2.35,12.39,12.39,0,0,1,3.45-1.4,11.35,11.35,0,0,1,3.88-.22,9.14,9.14,0,0,1,2.53.65,6.9,6.9,0,0,1,2,1.28,5.17,5.17,0,0,1,1.28,1.85,4.71,4.71,0,0,1,.3,2.33,4.8,4.8,0,0,1-1.57,3.11,9.82,9.82,0,0,1-3.6,2,23.56,23.56,0,0,1-5.19,1,53.6,53.6,0,0,1-6.33.2l0,.31a14.68,14.68,0,0,0,.12,4.32,10.93,10.93,0,0,0,1.27,3.49,7.59,7.59,0,0,0,2.2,2.4,6.31,6.31,0,0,0,2.94,1.1,8,8,0,0,0,3.45-.44A12.21,12.21,0,0,0,1376.06,826.27Zm-1.81-15a4.48,4.48,0,0,0-.11-1.6,4.2,4.2,0,0,0-.64-1.35,3.79,3.79,0,0,0-1.1-1,3.65,3.65,0,0,0-1.46-.48,5.5,5.5,0,0,0-2.2.19,5.88,5.88,0,0,0-1.85.94,8.21,8.21,0,0,0-1.53,1.53,11.8,11.8,0,0,0-1.22,1.92,15.46,15.46,0,0,0-.9,2.13,16.74,16.74,0,0,0-.61,2.16,32.18,32.18,0,0,0,4.7-.12,15.34,15.34,0,0,0,3.58-.76,6.19,6.19,0,0,0,2.35-1.44A3.58,3.58,0,0,0,1374.25,811.28Z"/></svg>
